<svg xmlns="http://www.w3.org/2000/svg" viewBox="0 0 106.65 106.65"><defs><style>.cls-1,.cls-2{fill:none;stroke:#231f20;stroke-miterlimit:10;stroke-width:3px;}.cls-2{stroke-linecap:round;}</style></defs><title>agape</title><g id="Layer_2" data-name="Layer 2"><g id="Circles"><g id="Squiggle"><line class="cls-1" x1="35.08" y1="35.36" x2="35.08" y2="35.36"/><line class="cls-1" x1="19.5" y1="13.83" x2="19.5" y2="13.84"/><path class="cls-2" d="M1.5,47.12C2.83,49.18,4,49.66,4.82,49.7c2,.1,3-2.41,4.89-2.15,1.69.23,1.85,2.28,3.41,2.34,1.79.08,2.42-2.57,4.28-2.49,1.4.06,1.59,1.59,3.1,1.69s2.16-1.55,3.76-1.65c.85,0,2.06.33,3.61,2.28"/><path class="cls-2" d="M5.34,73.86c2.18,1.12,3.43,1,4.17.58,1.8-.93,1.36-3.57,3.16-4.31,1.58-.65,2.74,1,4.12.32,1.59-.82.81-3.44,2.46-4.3,1.24-.64,2.17.59,3.53-.09s1.09-2.42,2.43-3.3c.72-.47,2-.74,4.27.17"/><path class="cls-2" d="M22,95.1c2.45-.12,3.44-.88,3.89-1.58,1.1-1.71-.6-3.77.59-5.31,1-1.35,2.9-.47,3.73-1.79,1-1.5-1-3.38,0-5,.75-1.18,2.18-.57,3-1.84S33,77,33.7,75.55c.38-.76,1.32-1.62,3.78-2"/><path class="cls-2" d="M47.12,105.15c2.06-1.33,2.54-2.49,2.58-3.32.1-2-2.41-3-2.15-4.89.23-1.7,2.28-1.86,2.34-3.41.08-1.79-2.57-2.43-2.49-4.28.06-1.4,1.59-1.59,1.69-3.11S47.54,84,47.44,82.38c0-.85.33-2.06,2.28-3.6"/><path class="cls-2" d="M73.86,101.3c1.12-2.18,1-3.42.58-4.16-.93-1.8-3.57-1.36-4.31-3.16-.65-1.58,1-2.75.32-4.13-.82-1.58-3.44-.81-4.3-2.45-.64-1.25.59-2.18-.09-3.53s-2.42-1.1-3.3-2.44c-.47-.71-.74-2,.17-4.26"/><path class="cls-2" d="M95.1,84.61c-.12-2.45-.88-3.45-1.58-3.9-1.71-1.09-3.77.61-5.31-.58-1.35-1-.47-2.9-1.79-3.74-1.5-1-3.38,1-5,0-1.18-.76-.57-2.18-1.84-3S77,73.67,75.55,73c-.76-.38-1.62-1.32-2-3.78"/><path class="cls-2" d="M105.15,59.53c-1.33-2.06-2.49-2.55-3.32-2.59-2-.09-3,2.41-4.89,2.15-1.7-.22-1.86-2.27-3.41-2.34-1.79-.07-2.43,2.58-4.28,2.5-1.4-.06-1.59-1.6-3.11-1.69S84,59.11,82.38,59.21c-.85,0-2.06-.34-3.6-2.29"/><path class="cls-2" d="M101.3,32.78c-2.18-1.11-3.42-1-4.16-.57-1.8.93-1.36,3.57-3.16,4.3-1.58.65-2.75-1-4.13-.32-1.58.83-.81,3.45-2.45,4.3-1.25.65-2.18-.59-3.53.09s-1.1,2.42-2.44,3.31c-.71.47-2,.74-4.26-.18"/><path class="cls-2" d="M84.61,11.54c-2.45.13-3.45.89-3.9,1.59-1.09,1.71.61,3.77-.58,5.31-1,1.35-2.9.47-3.74,1.78-1,1.51,1,3.39,0,5-.76,1.18-2.18.57-3,1.84s.27,2.64-.45,4.08c-.38.76-1.32,1.61-3.78,2"/><path class="cls-2" d="M59.53,1.5C57.47,2.83,57,4,56.94,4.82c-.09,2,2.41,3,2.15,4.89-.22,1.69-2.27,1.85-2.34,3.41-.07,1.79,2.58,2.42,2.5,4.28-.06,1.4-1.6,1.59-1.69,3.1s1.55,2.16,1.65,3.76c0,.85-.34,2.06-2.29,3.61"/><path class="cls-2" d="M32.78,5.34c-1.11,2.18-1,3.43-.57,4.17.93,1.8,3.57,1.36,4.3,3.16.65,1.58-1,2.74-.32,4.12.83,1.59,3.45.81,4.3,2.46.65,1.24-.59,2.17.09,3.53s2.42,1.09,3.31,2.43c.47.72.74,2-.18,4.27"/><path class="cls-2" d="M11.54,22c.13,2.45.89,3.44,1.59,3.89,1.71,1.1,3.77-.6,5.31.59,1.35,1,.47,2.9,1.78,3.73,1.51,1,3.39-1,5,0,1.18.75.57,2.18,1.84,3s2.64-.26,4.08.46c.76.38,1.61,1.32,2,3.78"/><path class="cls-2" d="M26.1,18.93c-.3,1.71,0,2.52.45,2.93,1,1,2.59.14,3.43,1.19s-.13,2.08.61,2.85,2.4-.21,3.29.72c.67.69,0,1.59.76,2.36s1.79.2,2.63.91c.45.38.88,1.16.74,2.92"/><path class="cls-2" d="M12.62,37.42c.6,1.64,1.3,2.16,1.86,2.32,1.34.39,2.31-1.18,3.56-.69s.93,1.87,2,2.16,2-1.38,3.2-1c.93.27.84,1.36,1.84,1.66s1.66-.71,2.74-.52c.58.1,1.33.56,2.09,2.16"/><path class="cls-2" d="M10.19,60.18c1.34,1.11,2.21,1.21,2.77,1.08,1.36-.33,1.42-2.18,2.75-2.38,1.16-.18,1.73,1.15,2.77.89,1.19-.29,1-2.18,2.26-2.49.94-.23,1.41.76,2.43.53s1.07-1.45,2.11-1.83c.55-.2,1.43-.18,2.89.82"/><path class="cls-2" d="M19.47,81.1c1.72.3,2.52-.06,2.94-.45,1-1,.13-2.6,1.18-3.44s2.08.14,2.85-.6-.2-2.41.72-3.29c.7-.67,1.59,0,2.36-.76s.21-1.8.92-2.64c.37-.45,1.15-.87,2.91-.73"/><path class="cls-2" d="M38,94.58c1.63-.6,2.15-1.31,2.31-1.86.4-1.34-1.18-2.32-.69-3.57s1.87-.92,2.17-2c.34-1.18-1.38-2-1-3.21.27-.92,1.36-.83,1.67-1.83s-.72-1.66-.53-2.75c.11-.57.57-1.33,2.16-2.09"/><path class="cls-2" d="M60.72,97c1.12-1.34,1.21-2.21,1.08-2.76-.33-1.36-2.18-1.42-2.38-2.75-.18-1.17,1.15-1.73.9-2.77-.3-1.2-2.19-1-2.49-2.27-.23-.93.75-1.4.52-2.42S56.9,83,56.52,81.92c-.19-.55-.17-1.44.83-2.89"/><path class="cls-2" d="M81.64,87.72c.3-1.71,0-2.51-.45-2.93-1-1-2.59-.14-3.43-1.19s.13-2.08-.61-2.85S74.74,81,73.86,80c-.67-.7,0-1.6-.76-2.36s-1.79-.21-2.64-.92c-.44-.38-.87-1.15-.73-2.91"/><path class="cls-2" d="M95.12,69.23c-.6-1.63-1.31-2.15-1.86-2.32-1.34-.39-2.31,1.18-3.57.69-1.09-.43-.92-1.86-2-2.16s-2,1.38-3.2,1c-.93-.27-.84-1.35-1.84-1.66s-1.66.72-2.74.52c-.58-.1-1.33-.56-2.09-2.15"/><path class="cls-2" d="M97.54,46.47c-1.33-1.11-2.2-1.21-2.76-1.07-1.36.33-1.42,2.18-2.75,2.38-1.16.17-1.73-1.16-2.77-.9-1.19.29-1,2.18-2.26,2.49-.94.23-1.41-.76-2.43-.52s-1.07,1.45-2.11,1.82c-.55.2-1.43.18-2.89-.82"/><path class="cls-2" d="M88.27,25.55c-1.72-.29-2.52.06-2.94.45-1,1-.13,2.6-1.19,3.44s-2.07-.14-2.85.61.21,2.4-.71,3.29c-.7.66-1.59,0-2.36.75s-.21,1.8-.92,2.64c-.38.45-1.15.87-2.91.74"/><path class="cls-2" d="M69.77,12.08c-1.63.6-2.15,1.3-2.31,1.85-.4,1.34,1.18,2.32.68,3.57s-1.86.92-2.16,1.95c-.34,1.18,1.38,2,1,3.21-.27.93-1.36.84-1.67,1.84s.72,1.65.53,2.74c-.11.57-.57,1.33-2.16,2.09"/><path class="cls-2" d="M47,9.65C45.9,11,45.8,11.86,45.94,12.42c.33,1.35,2.18,1.41,2.38,2.74.18,1.17-1.16,1.73-.9,2.77.3,1.2,2.19,1,2.49,2.27.23.94-.75,1.4-.52,2.42s1.45,1.08,1.82,2.12c.2.55.18,1.43-.82,2.88"/></g></g></g></svg>