<svg xmlns="http://www.w3.org/2000/svg" viewBox="0 0 149.95 149.95"><defs><style>.cls-1{fill:#231f20;}</style></defs><title>eros</title><g id="Layer_2" data-name="Layer 2"><g id="Circles"><path class="cls-1" d="M87.81,150l-8.25-24-4.84,18.44-4.91-19.7L58.14,149.15l1.58-25.35L48.18,139l3-20.08L31,137.06,42.2,114.24l-16.47,9.61,10.46-17.39-25.57,9.07,19-16.82-18.89,2.58L27.09,89.22,0,87.81l24-8.25L5.59,74.72l19.7-4.91L.79,58.14l25.36,1.58L11,48.18l20.07,3L12.88,31,35.7,42.2,26.09,25.73l17.4,10.46L34.42,10.62l16.82,19L48.66,10.77,60.73,27.09,62.14,0l8.24,24L75.23,5.59l4.9,19.7L91.8.79,90.23,26.15,101.76,11,98.75,31l20.16-18.16L107.75,35.7l16.46-9.61-10.45,17.4,25.57-9.07L120.28,51.24l18.89-2.58L122.85,60.73,150,62.14l-24,8.24,18.44,4.85-19.7,4.9L149.15,91.8,123.8,90.23,139,101.76l-20.08-3,18.17,20.16-22.83-11.16,9.61,16.47-17.39-10.46,9.07,25.57L98.71,120.28l2.58,18.89L89.22,122.85ZM74.48,114.43l.42,1.69,2-7.43-3.82,0Zm14.86-3.18L90.65,113l-1-7.62-3.54,1.44Zm-29-5.89L59.16,113l4.65-6.12Zm37.13-5.2,6.59,4-3.87-6.64ZM49.79,97.43l-4,6.59,6.64-3.87Zm21.51,4.22,7.39,0,1-3.58L81.79,101l6.85-2.79-.5-3.67,3.1,1.87,5.26-5.2L94.64,88l3.58.54,2.87-6.81-3-2.25,3.51-.87,0-7.4-3.58-.94L101,68.16l-2.79-6.85-3.67.5,1.87-3.1-5.2-5.27L88,55.31l.54-3.58-6.81-2.87-2.25,3-.87-3.52-7.4,0-.94,3.59-2.15-2.91L61.31,51.7l.5,3.68-3.1-1.87L53.44,58.7l1.87,3.21-3.58-.54-2.87,6.81,3,2.24-3.52.88,0,7.39,3.59,1-2.91,2.15,2.78,6.85,3.68-.5-1.87,3.1L58.7,96.5l3.21-1.86-.54,3.58,6.81,2.87,2.24-3Zm34.06-12,7.6,1.14-6.12-4.65ZM38.7,89.34l-1.77,1.31,7.61-1-1.43-3.54Zm70-16.25,0,3.81L116.12,75ZM33.82,74.9l7.44,2,0-3.82ZM105.4,60.33l1.44,3.53L113,59.29ZM37,59.16l6.12,4.65,1.48-3.51Zm60.5-9.36,2.68,2.71,4-6.58Zm-51.55-4,3.87,6.64,2.71-2.67ZM86.14,43.1l3.51,1.48L90.79,37Zm-25.91.71.1.73,3.53-1.43-4.57-6.18Zm12.86-2.55,3.81,0L75,33.82Z"/><path class="cls-1" d="M75,106.8A31.83,31.83,0,1,1,106.8,75,31.87,31.87,0,0,1,75,106.8Zm0-56.65A24.83,24.83,0,1,0,99.8,75,24.86,24.86,0,0,0,75,50.15Z"/></g></g></svg>