<svg xmlns="http://www.w3.org/2000/svg" viewBox="0 0 110.69 110.69"><defs><style>.cls-1{fill:#231f20;}</style></defs><title>philautia</title><g id="Layer_2" data-name="Layer 2"><g id="Circles"><rect class="cls-1" x="51.84" y="3.34" width="7" height="12.48"/><polygon class="cls-1" points="43 1.32 55.34 13.67 67.69 1.32 67.69 11.8 55.34 24.14 43 11.8 43 1.32"/><rect class="cls-1" x="43.9" y="4.04" width="7" height="12.48" transform="translate(-1.06 8.39) rotate(-10)"/><polygon class="cls-1" points="33.81 4.29 48.11 14.3 58.12 0 59.94 10.32 49.93 24.62 35.63 14.61 33.81 4.29"/><rect class="cls-1" x="36.19" y="6.1" width="7" height="12.48" transform="translate(-1.83 14.32) rotate(-20)"/><polygon class="cls-1" points="25.27 8.8 41.09 16.18 48.47 0.36 52.05 10.21 44.67 26.02 28.85 18.65 25.27 8.8"/><rect class="cls-1" x="28.96" y="9.47" width="7" height="12.48" transform="translate(-3.51 18.34) rotate(-30)"/><polygon class="cls-1" points="17.64 14.73 34.51 19.25 39.02 2.39 44.26 11.46 39.74 28.32 22.89 23.81 17.64 14.73"/><rect class="cls-1" x="22.43" y="14.05" width="7" height="12.48" transform="translate(-6.98 21.41) rotate(-40)"/><polygon class="cls-1" points="11.16 21.89 28.56 23.42 30.07 6.03 36.81 14.06 35.29 31.44 17.9 29.92 11.16 21.89"/><rect class="cls-1" x="16.79" y="19.69" width="7" height="12.48" transform="translate(-12.62 24.81) rotate(-50)"/><polygon class="cls-1" points="6.03 30.07 23.42 28.56 21.89 11.16 29.92 17.9 31.44 35.29 14.06 36.81 6.03 30.07"/><rect class="cls-1" x="12.21" y="26.22" width="7" height="12.48" transform="translate(-20.26 29.84) rotate(-60)"/><polygon class="cls-1" points="2.39 39.02 19.25 34.51 14.73 17.64 23.81 22.89 28.32 39.74 11.46 44.26 2.39 39.02"/><rect class="cls-1" x="8.84" y="33.45" width="7" height="12.48" transform="translate(-29.18 37.72) rotate(-70)"/><polygon class="cls-1" points="0.36 48.47 16.18 41.09 8.8 25.27 18.65 28.85 26.02 44.67 10.21 52.05 0.36 48.47"/><rect class="cls-1" x="6.78" y="41.16" width="7" height="12.48" transform="translate(-38.18 49.29) rotate(-80)"/><polygon class="cls-1" points="0 58.12 14.3 48.11 4.29 33.81 14.61 35.63 24.62 49.93 10.32 59.94 0 58.12"/><rect class="cls-1" x="3.34" y="51.84" width="12.48" height="7"/><polygon class="cls-1" points="1.32 67.69 13.67 55.34 1.32 43 11.8 43 24.14 55.34 11.8 67.69 1.32 67.69"/><rect class="cls-1" x="4.04" y="59.79" width="12.48" height="7" transform="translate(-10.84 2.75) rotate(-10)"/><polygon class="cls-1" points="4.29 76.88 14.3 62.58 0 52.57 10.32 50.75 24.62 60.76 14.61 75.06 4.29 76.88"/><rect class="cls-1" x="6.1" y="67.49" width="12.48" height="7" transform="translate(-23.54 8.5) rotate(-20)"/><polygon class="cls-1" points="8.8 85.42 16.18 69.6 0.36 62.22 10.21 58.64 26.02 66.02 18.65 81.83 8.8 85.42"/><rect class="cls-1" x="9.47" y="74.72" width="12.48" height="7" transform="translate(-37.01 18.34) rotate(-30)"/><polygon class="cls-1" points="14.73 93.04 19.25 76.18 2.39 71.67 11.46 66.43 28.32 70.94 23.81 87.8 14.73 93.04"/><rect class="cls-1" x="14.05" y="81.26" width="12.48" height="7" transform="translate(-49.73 32.87) rotate(-40)"/><polygon class="cls-1" points="21.89 99.52 23.42 82.13 6.03 80.61 14.06 73.88 31.44 75.4 29.92 92.79 21.89 99.52"/><rect class="cls-1" x="19.69" y="86.9" width="12.48" height="7" transform="translate(-59.99 52.16) rotate(-50)"/><polygon class="cls-1" points="30.07 104.66 28.56 87.27 11.16 88.79 17.9 80.77 35.29 79.24 36.81 96.63 30.07 104.66"/><rect class="cls-1" x="26.22" y="91.47" width="12.48" height="7" transform="translate(-66.02 75.6) rotate(-60)"/><polygon class="cls-1" points="39.02 108.3 34.51 91.43 17.64 95.96 22.89 86.88 39.74 82.36 44.26 99.22 39.02 108.3"/><rect class="cls-1" x="33.45" y="94.84" width="12.48" height="7" transform="translate(-66.3 102) rotate(-70)"/><polygon class="cls-1" points="48.47 110.33 41.09 94.5 25.27 101.89 28.85 92.04 44.67 84.66 52.05 100.48 48.47 110.33"/><rect class="cls-1" x="41.16" y="96.91" width="12.48" height="7" transform="translate(-59.72 129.65) rotate(-80)"/><polygon class="cls-1" points="58.12 110.69 48.11 96.38 33.81 106.4 35.63 96.08 49.93 86.07 59.94 100.37 58.12 110.69"/><rect class="cls-1" x="51.84" y="94.86" width="7" height="12.48"/><polygon class="cls-1" points="67.69 109.36 55.34 97.02 43 109.36 43 98.89 55.34 86.54 67.69 98.89 67.69 109.36"/><rect class="cls-1" x="59.79" y="94.17" width="7" height="12.48" transform="translate(-16.47 12.52) rotate(-10)"/><polygon class="cls-1" points="76.88 106.4 62.58 96.38 52.57 110.69 50.75 100.37 60.76 86.07 75.06 96.08 76.88 106.4"/><rect class="cls-1" x="67.49" y="92.1" width="7" height="12.48" transform="translate(-29.36 30.21) rotate(-20)"/><polygon class="cls-1" points="85.42 101.89 69.6 94.5 62.22 110.33 58.64 100.48 66.02 84.66 81.83 92.04 85.42 101.89"/><rect class="cls-1" x="74.72" y="88.73" width="7" height="12.48" transform="translate(-37.01 51.84) rotate(-30)"/><polygon class="cls-1" points="93.04 95.96 76.18 91.43 71.67 108.3 66.43 99.22 70.94 82.36 87.8 86.88 93.04 95.96"/><rect class="cls-1" x="81.26" y="84.16" width="7" height="12.48" transform="translate(-38.28 75.63) rotate(-40)"/><polygon class="cls-1" points="99.52 88.79 82.13 87.27 80.61 104.66 73.88 96.63 75.4 79.24 92.79 80.77 99.52 88.79"/><rect class="cls-1" x="86.9" y="78.52" width="7" height="12.48" transform="translate(-32.64 99.53) rotate(-50)"/><polygon class="cls-1" points="104.66 80.61 87.27 82.13 88.79 99.52 80.77 92.79 79.24 75.4 96.63 73.88 104.66 80.61"/><rect class="cls-1" x="91.47" y="71.98" width="7" height="12.48" transform="translate(-20.26 121.36) rotate(-60)"/><polygon class="cls-1" points="108.3 71.67 91.43 76.18 95.96 93.04 86.88 87.8 82.36 70.94 99.22 66.43 108.3 71.67"/><rect class="cls-1" x="94.84" y="64.75" width="7" height="12.48" transform="translate(-2.01 139.12) rotate(-70)"/><polygon class="cls-1" points="110.33 62.22 94.5 69.6 101.89 85.42 92.04 81.83 84.66 66.02 100.48 58.64 110.33 62.22"/><rect class="cls-1" x="96.91" y="57.05" width="7" height="12.48" transform="translate(20.64 151.18) rotate(-80)"/><polygon class="cls-1" points="110.69 52.57 96.38 62.58 106.4 76.88 96.08 75.06 86.07 60.76 100.37 50.75 110.69 52.57"/><rect class="cls-1" x="94.86" y="51.84" width="12.48" height="7"/><polygon class="cls-1" points="109.36 43 97.02 55.34 109.36 67.69 98.89 67.69 86.54 55.34 98.89 43 109.36 43"/><rect class="cls-1" x="94.17" y="43.9" width="12.48" height="7" transform="translate(-6.71 18.16) rotate(-10)"/><polygon class="cls-1" points="106.4 33.81 96.38 48.11 110.69 58.12 100.37 59.94 86.07 49.93 96.08 35.63 106.4 33.81"/><rect class="cls-1" x="92.1" y="36.19" width="12.48" height="7" transform="translate(-7.64 36.02) rotate(-19.99)"/><polygon class="cls-1" points="101.89 25.27 94.5 41.09 110.33 48.47 100.48 52.05 84.66 44.67 92.04 28.85 101.89 25.27"/><rect class="cls-1" x="88.73" y="28.96" width="12.48" height="7" transform="translate(-3.51 51.83) rotate(-30)"/><polygon class="cls-1" points="95.96 17.64 91.43 34.51 108.3 39.02 99.22 44.26 82.36 39.74 86.88 22.89 95.96 17.64"/><rect class="cls-1" x="84.16" y="22.43" width="12.48" height="7" transform="translate(4.48 64.17) rotate(-40)"/><polygon class="cls-1" points="88.79 11.16 87.27 28.56 104.66 30.07 96.63 36.81 79.24 35.29 80.77 17.9 88.79 11.16"/><rect class="cls-1" x="78.52" y="16.79" width="12.48" height="7" transform="translate(14.74 72.18) rotate(-50)"/><polygon class="cls-1" points="80.61 6.03 82.13 23.42 99.52 21.89 92.79 29.92 75.4 31.44 73.88 14.06 80.61 6.03"/><rect class="cls-1" x="71.98" y="12.21" width="12.48" height="7" transform="translate(25.5 75.6) rotate(-60)"/><polygon class="cls-1" points="71.67 2.39 76.18 19.25 93.04 14.73 87.8 23.81 70.94 28.32 66.43 11.46 71.67 2.39"/><rect class="cls-1" x="64.75" y="8.84" width="12.48" height="7" transform="translate(35.11 74.83) rotate(-70)"/><polygon class="cls-1" points="62.22 0.36 69.6 16.18 85.42 8.8 81.83 18.65 66.02 26.02 58.64 10.21 62.22 0.36"/><rect class="cls-1" x="57.05" y="6.78" width="12.48" height="7" transform="translate(42.17 70.82) rotate(-80)"/><polygon class="cls-1" points="52.57 0 62.58 14.3 76.88 4.29 75.06 14.61 60.76 24.62 50.75 10.32 52.57 0"/></g></g></svg>