<svg xmlns="http://www.w3.org/2000/svg" viewBox="0 0 126.93 123.1"><title>philia</title><g id="Layer_2" data-name="Layer 2"><g id="Circles"><path d="M122.73,47.57a11.35,11.35,0,0,0-4.16-2.48,11.22,11.22,0,0,0-1.65-14,8.58,8.58,0,0,0-8.64-2,6.52,6.52,0,0,0-2-4.95,5.15,5.15,0,0,0-5.57-1,5.47,5.47,0,0,0-1.66-4.32,4.32,4.32,0,0,0-6.38.46A2.63,2.63,0,0,0,92,18.09a2.18,2.18,0,0,0-3.29.33c-.07.1-.12.21-.18.31a1.21,1.21,0,0,0-1-.9.75.75,0,0,0-.3,0,9.93,9.93,0,0,0,.2-12.15c-4-5.54-12.72-7.36-19.48-4.07a13.46,13.46,0,0,0-4.26,3.19C60.29.89,53.74-.32,48.59,2.19A9.25,9.25,0,0,0,43,9.74a8.15,8.15,0,0,0-5.93.41,5.47,5.47,0,0,0-3.34,4.94,6.78,6.78,0,0,0-5.13.27c-2.61,1.27-3.53,4-2.16,6.16a3.26,3.26,0,0,0-1.52.33,2.12,2.12,0,0,0-1,3.2,2,2,0,0,0,.24.26,1.49,1.49,0,0,0-1.33.66,1,1,0,0,0-.1.78,10.7,10.7,0,0,0-6.15-1c-6.39.82-11,7.08-10.4,14a13.18,13.18,0,0,0,1.42,4.83c-4.73,1-8.08,5.8-7.58,11A9.87,9.87,0,0,0,5,63.37a6.44,6.44,0,0,0-1.67,5,5.87,5.87,0,0,0,3.33,4.86A5.31,5.31,0,0,0,5.1,77.48,4.69,4.69,0,0,0,10,81.89a2.68,2.68,0,0,0-.24,1.39,2.34,2.34,0,0,0,2.56,2.2l.32-.08a1.34,1.34,0,0,0,.14,1.36,1.11,1.11,0,0,0,.8.44A11.5,11.5,0,0,0,9,93.8c-1.51,6.28,2.92,12.47,9.9,13.83a14.22,14.22,0,0,0,5.24.05c-.72,4.76,2.74,9.3,8.06,10.33a11.12,11.12,0,0,0,9.38-2.42,6.15,6.15,0,0,0,4.26,3,6.62,6.62,0,0,0,5.95-1.76,5.09,5.09,0,0,0,3.62,2.67,5.22,5.22,0,0,0,6.06-3.32,2.72,2.72,0,0,0,1.27.63A2.61,2.61,0,0,0,65.82,115a2.09,2.09,0,0,0,0-.34,1.39,1.39,0,0,0,1.38.27,1.25,1.25,0,0,0,.73-.67,11.74,11.74,0,0,0,4.91,7.15c5.49,3.55,12.87,1.17,16.5-5.3A15.69,15.69,0,0,0,91.17,111c4.3,2.25,9.78.3,12.54-4.62a12,12,0,0,0,.83-10.09A6.35,6.35,0,0,0,108.82,93a7.12,7.12,0,0,0,.32-6.46,5.27,5.27,0,0,0,3.74-2.72,5.5,5.5,0,0,0-1.14-7.08,2.81,2.81,0,0,0,1-1.06,2.74,2.74,0,0,0-.67-3.63c-.1-.06-.2-.1-.3-.15a1.48,1.48,0,0,0,.71-1.28,1.38,1.38,0,0,0-.11-.55,11,11,0,0,0,11.84-4.25A14,14,0,0,0,122.73,47.57Zm-12.61,23.3a1.28,1.28,0,0,0,.39.95,2.68,2.68,0,0,0-1.72,1.32,3,3,0,0,0,0,2.85,5.22,5.22,0,0,0-3.81,2.73,6,6,0,0,0-.48,4.83,6.15,6.15,0,0,0-5.17,3.33,7.29,7.29,0,0,0-.94,3.86c-3.88-.86-8.19,1.18-10.53,5.36a12,12,0,0,0-1,2.47c-.25-.19-.5-.38-.77-.55-5.48-3.55-12.87-1.17-16.49,5.3a15.25,15.25,0,0,0-1.79,9.79,1.39,1.39,0,0,0-1.43-.31,1.24,1.24,0,0,0-.73.67,2.52,2.52,0,0,0-1.73-1.2,2.72,2.72,0,0,0-2.59.86,5,5,0,0,0-3.65-2.72,5.56,5.56,0,0,0-4.52,1.08,6,6,0,0,0-4.61-3.81,6.81,6.81,0,0,0-3.79.34,9.73,9.73,0,0,0-8.11-8.21A11.72,11.72,0,0,0,34,99.62a9.32,9.32,0,0,0,.27-.9c1.51-6.28-2.92-12.47-9.9-13.83a14,14,0,0,0-9.7,1.57,1.33,1.33,0,0,0-.15-1.32,1.09,1.09,0,0,0-.85-.44,2.66,2.66,0,0,0,.67-2,2.43,2.43,0,0,0-1.54-2.08,5.31,5.31,0,0,0,1.56-4.31,4.93,4.93,0,0,0-2.28-3.78,6.34,6.34,0,0,0,2.33-5.59A6.15,6.15,0,0,0,13,63.55,10.41,10.41,0,0,0,18.59,53.2a10.72,10.72,0,0,0-.53-2.43c.31,0,.61,0,.92-.06,6.4-.82,11.06-7.09,10.41-14a12.48,12.48,0,0,0-5.13-9.1A1.43,1.43,0,0,0,25.41,27a1,1,0,0,0,0-.94,3.36,3.36,0,0,0,2.39-.19,2.24,2.24,0,0,0,1.38-2.22,6.77,6.77,0,0,0,5.2-.25,4.67,4.67,0,0,0,2.75-3.57,8.12,8.12,0,0,0,6.88,0,6.07,6.07,0,0,0,2.77-2.58,13.38,13.38,0,0,0,13.36,1.05,11.75,11.75,0,0,0,2.22-1.43c.17.27.34.55.53.82,4,5.54,12.72,7.36,19.48,4.07A13.93,13.93,0,0,0,86.22,19a1.28,1.28,0,0,0,1,1.42,1.09,1.09,0,0,0,.9-.33,2.74,2.74,0,0,0,.82,2,2.16,2.16,0,0,0,2.47.36,5.46,5.46,0,0,0,1.66,4.38,4.29,4.29,0,0,0,4.13,1,6.64,6.64,0,0,0,1.9,5.92,5.24,5.24,0,0,0,3.18,1.42A11.2,11.2,0,0,0,105,47.08a9.37,9.37,0,0,0,2,1.38c-.21.25-.43.49-.63.76a14,14,0,0,0,1.5,18.28,11.27,11.27,0,0,0,3.09,2.06A1.5,1.5,0,0,0,110.12,70.87Z"/></g></g></svg>