<svg xmlns="http://www.w3.org/2000/svg" viewBox="0 0 108.48 108.03"><defs><style>.cls-1{fill:#231f20;}</style></defs><title>storge</title><g id="Layer_2" data-name="Layer 2"><g id="Circles"><path class="cls-1" d="M54.24,25.73c-3.12,0-5.57-5.65-5.57-12.87S51.12,0,54.24,0s5.57,5.65,5.57,12.86S57.36,25.73,54.24,25.73ZM54.24,1C52,1,49.67,5.77,49.67,12.86S52,24.73,54.24,24.73,58.81,20,58.81,12.86,56.45,1,54.24,1Z"/><path class="cls-1" d="M47.82,26.4c-2.92,0-6.17-4.84-7.58-11.48C38.74,7.86,40,1.83,43,1.18c1.54-.33,3.23.74,4.78,3a24.3,24.3,0,0,1,3.34,8.42h0a24.4,24.4,0,0,1,.37,9.06C51,24.35,49.9,26,48.36,26.34A2.48,2.48,0,0,1,47.82,26.4ZM43.56,2.12a1.86,1.86,0,0,0-.34,0c-2.16.46-3.48,5.61-2,12.55S46,25.83,48.15,25.37c1.1-.24,2-1.65,2.37-3.89a23.19,23.19,0,0,0-.37-8.67h0A23.1,23.1,0,0,0,47,4.75C45.81,3.06,44.59,2.12,43.56,2.12Z"/><path class="cls-1" d="M41.63,28.4c-2.82,0-6.64-3.92-9.21-9.71a24.44,24.44,0,0,1-2.25-8.78c-.08-2.74.67-4.6,2.1-5.24s3.32,0,5.3,2a24.17,24.17,0,0,1,5,7.54,24.1,24.1,0,0,1,2.24,8.77c.09,2.74-.66,4.6-2.1,5.24A2.55,2.55,0,0,1,41.63,28.4Zm-8.24-23a1.8,1.8,0,0,0-.71.14c-1,.46-1.58,2-1.51,4.3a23.39,23.39,0,0,0,2.16,8.4c2.89,6.48,7,9.88,9,9,1-.46,1.57-2,1.5-4.3a23.36,23.36,0,0,0-2.15-8.4h0a23.28,23.28,0,0,0-4.8-7.22A5.7,5.7,0,0,0,33.39,5.44Z"/><path class="cls-1" d="M35.85,31.66A7.62,7.62,0,0,1,32,30.33,24.39,24.39,0,0,1,25.55,24C21.31,18.16,20,12.15,22.49,10.32c1.27-.93,3.26-.64,5.59.8a24.39,24.39,0,0,1,6.48,6.33h0a24.42,24.42,0,0,1,4,8.12c.65,2.66.3,4.64-1,5.56A3,3,0,0,1,35.85,31.66ZM24.26,10.78a2,2,0,0,0-1.18.34c-1.79,1.3-.89,6.55,3.28,12.29a23.39,23.39,0,0,0,6.19,6.07c1.94,1.19,3.57,1.5,4.48.84s1.11-2.3.58-4.51A23.52,23.52,0,0,0,33.75,18,23.26,23.26,0,0,0,27.55,12,6.72,6.72,0,0,0,24.26,10.78Z"/><path class="cls-1" d="M30.62,36.07a9,9,0,0,1-3-.61,24.23,24.23,0,0,1-7.66-4.84C14.57,25.79,12,20.19,14.1,17.87s7.93-.36,13.29,4.47A24.24,24.24,0,0,1,33,29.45c1.19,2.47,1.27,4.47.22,5.64A3.37,3.37,0,0,1,30.62,36.07ZM16.71,17.89a2.45,2.45,0,0,0-1.87.65c-1.47,1.64.49,6.59,5.76,11.33a23.28,23.28,0,0,0,7.33,4.65c2.14.77,3.79.73,4.54-.1s.62-2.49-.37-4.54a23.26,23.26,0,0,0-5.38-6.8C22.84,19.59,19,17.89,16.71,17.89Z"/><path class="cls-1" d="M25.84,41.51c-2.68,0-6.33-1.12-10-3.25a24.43,24.43,0,0,1-7-5.78C7.17,30.31,6.68,28.37,7.46,27s2.72-1.91,5.43-1.54a24.05,24.05,0,0,1,8.5,3.15c6.24,3.6,9.91,8.55,8.35,11.25C29.1,41,27.7,41.51,25.84,41.51ZM11.33,26.36c-1.5,0-2.57.4-3,1.15-.56,1-.08,2.56,1.31,4.36a23.26,23.26,0,0,0,6.68,5.53c6.15,3.54,11.46,3.88,12.56,2S27,33,20.89,29.48h0a23.3,23.3,0,0,0-8.13-3A10.54,10.54,0,0,0,11.33,26.36Z"/><path class="cls-1" d="M21.16,48a25.77,25.77,0,0,1-7.78-1.36,24.31,24.31,0,0,1-8-4.2c-2.09-1.78-3-3.57-2.49-5.07,1-3,7.1-3.55,14-1.32a24.28,24.28,0,0,1,8,4.21c2.09,1.77,3,3.57,2.49,5.06s-2.26,2.43-5,2.64C22,47.94,21.57,48,21.16,48ZM9.06,35.64c-2.89,0-4.84.77-5.24,2-.35,1.07.45,2.52,2.18,4a23.18,23.18,0,0,0,7.69,4,23.42,23.42,0,0,0,8.58,1.27C24.54,46.74,26,46,26.39,45s-.45-2.52-2.19-4a23.2,23.2,0,0,0-7.68-4h0A24.9,24.9,0,0,0,9.06,35.64Z"/><path class="cls-1" d="M15.88,55.42a28.73,28.73,0,0,1-3.15-.17A24.23,24.23,0,0,1,4,52.8C1.6,51.51.36,49.93.52,48.37c.33-3.11,6.2-4.95,13.38-4.2h0c7.17.76,12.53,3.78,12.21,6.89C25.83,53.69,21.55,55.42,15.88,55.42ZM10.71,45c-5.39,0-9,1.61-9.19,3.47-.12,1.12,1,2.38,3,3.45a23.31,23.31,0,0,0,8.36,2.34c7.07.74,12-1.11,12.27-3.31s-4.26-5-11.32-5.78A30.56,30.56,0,0,0,10.71,45Z"/><path class="cls-1" d="M10.75,64C5.08,64,.8,62.3.52,59.66.36,58.1,1.6,56.52,4,55.22a24.44,24.44,0,0,1,8.72-2.44C19.9,52,25.78,53.87,26.11,57s-5,6.13-12.21,6.88A28.73,28.73,0,0,1,10.75,64Zm2.09-10.25a23.31,23.31,0,0,0-8.36,2.34c-2,1.07-3.08,2.33-3,3.45.23,2.19,5.21,4,12.27,3.3s11.55-3.59,11.32-5.78-5.22-4-12.27-3.31Z"/><path class="cls-1" d="M9.07,73.38c-3.26,0-5.63-.92-6.2-2.67-.49-1.5.4-3.3,2.49-5.07a24.32,24.32,0,0,1,8-4.21h0a24.4,24.4,0,0,1,9-1.31c2.73.21,4.5,1.14,5,2.64s-.4,3.29-2.49,5.06a24.28,24.28,0,0,1-8,4.21A25.7,25.7,0,0,1,9.07,73.38Zm4.62-11a23.18,23.18,0,0,0-7.69,4c-1.73,1.47-2.53,2.92-2.18,4,.68,2.1,5.94,2.87,12.7.68a23.2,23.2,0,0,0,7.68-4c1.74-1.47,2.53-2.93,2.19-4s-1.85-1.78-4.12-2a23.18,23.18,0,0,0-8.58,1.27Z"/><path class="cls-1" d="M11.34,82.67c-1.9,0-3.25-.56-3.88-1.65-.78-1.36-.29-3.3,1.38-5.47a24.27,24.27,0,0,1,7-5.78c6.24-3.61,12.36-4.31,13.92-1.61s-2.11,7.65-8.35,11.25a24.25,24.25,0,0,1-8.5,3.15A10.75,10.75,0,0,1,11.34,82.67Zm14.5-15.16a20.56,20.56,0,0,0-9.52,3.12h0a23.26,23.26,0,0,0-6.68,5.53C8.25,78,7.77,79.55,8.33,80.52s2.17,1.36,4.43,1a23.3,23.3,0,0,0,8.13-3c6.14-3.55,9.09-8,8-9.89C28.44,67.91,27.36,67.51,25.84,67.51Z"/><path class="cls-1" d="M16.69,91.13a3.34,3.34,0,0,1-2.59-1c-2.09-2.32.47-7.92,5.83-12.75h0a24.23,24.23,0,0,1,7.66-4.84c2.58-.93,4.58-.79,5.63.37s1,3.17-.22,5.64a24.24,24.24,0,0,1-5.61,7.11C23.55,89.14,19.47,91.13,16.69,91.13Zm3.91-13c-5.27,4.75-7.23,9.7-5.76,11.34s6.6.2,11.88-4.54a23.39,23.39,0,0,0,5.38-6.8c1-2.05,1.13-3.7.38-4.54s-2.41-.87-4.55-.1a23.42,23.42,0,0,0-7.33,4.64Z"/><path class="cls-1" d="M24.26,98.25a2.93,2.93,0,0,1-1.77-.54C20,95.88,21.31,89.87,25.55,84A24.39,24.39,0,0,1,32,77.7c2.33-1.44,4.31-1.72,5.58-.8s1.62,2.9,1,5.56a24.42,24.42,0,0,1-4,8.12,24.39,24.39,0,0,1-6.48,6.33A7.61,7.61,0,0,1,24.26,98.25ZM35.84,77.37a6.75,6.75,0,0,0-3.29,1.18,23.39,23.39,0,0,0-6.19,6.07h0c-4.17,5.74-5.07,11-3.28,12.28.91.66,2.54.36,4.47-.84A23.26,23.26,0,0,0,33.75,90a23.52,23.52,0,0,0,3.86-7.77c.53-2.21.32-3.85-.58-4.51A2,2,0,0,0,35.84,77.37Z"/><path class="cls-1" d="M33.39,103.59a2.84,2.84,0,0,1-1.12-.23c-1.43-.64-2.18-2.5-2.1-5.24a24.44,24.44,0,0,1,2.25-8.78h0c2.93-6.59,7.46-10.76,10.31-9.48,1.44.64,2.19,2.5,2.1,5.24a24.1,24.1,0,0,1-2.24,8.77,24.17,24.17,0,0,1-5,7.54A6.5,6.5,0,0,1,33.39,103.59Zm8.23-23c-2.16,0-5.71,3.33-8.29,9.12h0a23.39,23.39,0,0,0-2.16,8.4c-.07,2.27.48,3.84,1.51,4.3s2.55-.19,4.2-1.76a23.28,23.28,0,0,0,4.8-7.22,23.41,23.41,0,0,0,2.15-8.4c.07-2.28-.48-3.84-1.5-4.3A1.83,1.83,0,0,0,41.62,80.63Z"/><path class="cls-1" d="M43.56,106.91a2.57,2.57,0,0,1-.55-.06c-3-.65-4.27-6.68-2.77-13.74h0c1.5-7.06,5.08-12.06,8.12-11.42,1.54.32,2.65,2,3.14,4.68a24.4,24.4,0,0,1-.37,9.06,24.3,24.3,0,0,1-3.34,8.42C46.43,105.84,45,106.91,43.56,106.91ZM41.22,93.32c-1.48,6.94-.16,12.09,2,12.55,1.11.23,2.46-.71,3.74-2.59a23.1,23.1,0,0,0,3.19-8.06,23.19,23.19,0,0,0,.37-8.67c-.41-2.24-1.27-3.65-2.37-3.89-2.16-.45-5.46,3.72-6.93,10.66Z"/><path class="cls-1" d="M54.24,108c-3.12,0-5.57-5.65-5.57-12.86S51.12,82.3,54.24,82.3,59.81,88,59.81,95.17,57.36,108,54.24,108Zm0-24.73c-2.21,0-4.57,4.77-4.57,11.87S52,107,54.24,107s4.57-4.77,4.57-11.86S56.45,83.3,54.24,83.3Z"/><path class="cls-1" d="M64.92,106.91c-1.38,0-2.86-1.07-4.22-3.06a24.31,24.31,0,0,1-3.35-8.42h0A24.4,24.4,0,0,1,57,86.37c.49-2.69,1.61-4.36,3.14-4.68,3.06-.65,6.63,4.37,8.13,11.42s.28,13.09-2.78,13.74A2.51,2.51,0,0,1,64.92,106.91ZM60.66,82.63a1.84,1.84,0,0,0-.33,0c-1.1.24-2,1.65-2.36,3.89a23.17,23.17,0,0,0,.36,8.67h0a23.1,23.1,0,0,0,3.19,8.06c1.28,1.88,2.63,2.82,3.74,2.59,2.16-.46,3.48-5.61,2-12.55C65.87,86.72,62.81,82.63,60.66,82.63Z"/><path class="cls-1" d="M75.09,103.59a6.48,6.48,0,0,1-4.17-2.18,24,24,0,0,1-5-7.54,24.31,24.31,0,0,1-2.24-8.77c-.08-2.74.66-4.6,2.1-5.24,2.85-1.27,7.38,2.89,10.32,9.48a24.4,24.4,0,0,1,2.24,8.78c.08,2.74-.66,4.6-2.1,5.24A2.8,2.8,0,0,1,75.09,103.59Zm-8.23-23a1.87,1.87,0,0,0-.71.14c-1,.46-1.57,2-1.5,4.3a23.23,23.23,0,0,0,2.16,8.4h0a23.11,23.11,0,0,0,4.8,7.22c1.64,1.57,3.17,2.21,4.19,1.76s1.58-2,1.51-4.3a23.18,23.18,0,0,0-2.16-8.4C72.57,84,69,80.63,66.86,80.63Z"/><path class="cls-1" d="M84.22,98.25a7.55,7.55,0,0,1-3.81-1.34,24.27,24.27,0,0,1-6.49-6.33h0a24.38,24.38,0,0,1-4-8.12c-.65-2.66-.31-4.64,1-5.56s3.25-.64,5.58.8A24.1,24.1,0,0,1,82.93,84c4.24,5.84,5.59,11.85,3.06,13.68A2.91,2.91,0,0,1,84.22,98.25ZM74.73,90a23.41,23.41,0,0,0,6.2,6.07c1.93,1.2,3.57,1.5,4.47.84,1.79-1.29.9-6.54-3.27-12.28a23.56,23.56,0,0,0-6.2-6.07c-1.94-1.19-3.57-1.5-4.47-.84s-1.12,2.3-.58,4.51A23.29,23.29,0,0,0,74.73,90Z"/><path class="cls-1" d="M91.79,91.13c-2.78,0-6.86-2-10.69-5.44a24.13,24.13,0,0,1-5.62-7.11c-1.19-2.47-1.27-4.47-.22-5.64s3-1.3,5.63-.37a24.23,24.23,0,0,1,7.66,4.84c5.36,4.83,7.92,10.43,5.83,12.75A3.34,3.34,0,0,1,91.79,91.13ZM77.87,73a2.43,2.43,0,0,0-1.86.65c-.75.84-.62,2.49.37,4.54A23.44,23.44,0,0,0,81.77,85c5.27,4.74,10.39,6.18,11.87,4.54s-.49-6.59-5.76-11.34a23.5,23.5,0,0,0-7.32-4.64A8.19,8.19,0,0,0,77.87,73Z"/><path class="cls-1" d="M97.15,82.67a10.79,10.79,0,0,1-1.56-.11,24.32,24.32,0,0,1-8.5-3.15c-6.24-3.6-9.91-8.55-8.35-11.25s7.68-2,13.92,1.61a24.13,24.13,0,0,1,7,5.78c1.67,2.17,2.16,4.11,1.38,5.47C100.39,82.11,99,82.67,97.15,82.67ZM82.64,67.51c-1.52,0-2.6.4-3,1.15-1.11,1.91,1.84,6.34,8,9.89h0a23.37,23.37,0,0,0,8.13,3c2.26.31,3.87-.08,4.43-1s.09-2.56-1.3-4.36a23.45,23.45,0,0,0-6.69-5.53A20.56,20.56,0,0,0,82.64,67.51Z"/><path class="cls-1" d="M99.41,73.38A25.7,25.7,0,0,1,91.66,72a24.48,24.48,0,0,1-8-4.21c-2.09-1.77-3-3.57-2.48-5.06s2.25-2.43,5-2.64a26.91,26.91,0,0,1,17,5.52c2.09,1.77,3,3.57,2.49,5.07C105,72.46,102.67,73.38,99.41,73.38ZM87.33,61.08c-.39,0-.76,0-1.12,0-2.27.17-3.77.88-4.11,2s.45,2.52,2.18,4a23.36,23.36,0,0,0,7.69,4h0c6.75,2.19,12,1.42,12.69-.68.35-1.07-.45-2.52-2.18-4a23.18,23.18,0,0,0-7.69-4A24.66,24.66,0,0,0,87.33,61.08Z"/><path class="cls-1" d="M97.73,64a28.73,28.73,0,0,1-3.15-.17h0c-7.17-.75-12.53-3.77-12.2-6.88s6.2-4.95,13.37-4.19a24.32,24.32,0,0,1,8.72,2.44c2.42,1.3,3.65,2.88,3.49,4.44C107.68,62.3,103.41,64,97.73,64Zm-3-1.16c7,.74,12-1.11,12.28-3.3.11-1.12-1-2.38-3-3.45a23.25,23.25,0,0,0-8.35-2.34C88.58,53,83.6,54.88,83.37,57.08s4.26,5,11.32,5.78Z"/><path class="cls-1" d="M92.6,55.42c-5.67,0-9.95-1.73-10.22-4.36-.33-3.11,5-6.13,12.2-6.89s13,1.09,13.38,4.2c.16,1.56-1.07,3.14-3.49,4.43a24.11,24.11,0,0,1-8.72,2.45A28.6,28.6,0,0,1,92.6,55.42ZM97.78,45a30.59,30.59,0,0,0-3.09.17c-7.06.74-11.55,3.59-11.32,5.78s5.22,4,12.27,3.31h0A23.25,23.25,0,0,0,104,51.92c2-1.07,3.08-2.33,3-3.45C106.77,46.61,103.16,45,97.78,45Z"/><path class="cls-1" d="M87.32,48c-.41,0-.8,0-1.18,0-2.74-.21-4.51-1.14-5-2.64s.39-3.29,2.48-5.06a24.48,24.48,0,0,1,8-4.21c6.86-2.23,13-1.65,14,1.32.49,1.5-.4,3.29-2.49,5.07a24.31,24.31,0,0,1-8,4.2h0A25.77,25.77,0,0,1,87.32,48Zm12.1-12.31A24.84,24.84,0,0,0,92,37a23.36,23.36,0,0,0-7.69,4c-1.73,1.47-2.53,2.93-2.18,4s1.84,1.78,4.11,1.95a23.18,23.18,0,0,0,8.58-1.27h0a23.18,23.18,0,0,0,7.69-4c1.73-1.47,2.53-2.92,2.18-4C104.26,36.41,102.31,35.64,99.42,35.64Z"/><path class="cls-1" d="M82.64,41.51c-1.86,0-3.26-.53-3.9-1.64-1.56-2.7,2.11-7.65,8.35-11.25a24.12,24.12,0,0,1,8.5-3.15c2.72-.37,4.64.18,5.43,1.54s.29,3.3-1.38,5.47a24.29,24.29,0,0,1-7,5.78C89,40.39,85.33,41.51,82.64,41.51ZM97.15,26.36a10.54,10.54,0,0,0-1.43.1,23.37,23.37,0,0,0-8.13,3c-6.14,3.55-9.09,8-8,9.89s6.41,1.57,12.55-2h0a23.45,23.45,0,0,0,6.69-5.53c1.39-1.8,1.86-3.39,1.3-4.36C99.72,26.76,98.65,26.36,97.15,26.36Z"/><path class="cls-1" d="M77.86,36.07a3.37,3.37,0,0,1-2.6-1c-1.05-1.17-1-3.17.22-5.64a24.13,24.13,0,0,1,5.62-7.11c5.36-4.83,11.19-6.79,13.28-4.47s-.47,7.92-5.83,12.75h0a24.23,24.23,0,0,1-7.66,4.84A9,9,0,0,1,77.86,36.07ZM91.77,17.89c-2.32,0-6.12,1.7-10,5.19a23.31,23.31,0,0,0-5.39,6.8c-1,2.05-1.12,3.7-.37,4.54s2.41.87,4.55.1a23.36,23.36,0,0,0,7.32-4.65c5.27-4.74,7.24-9.69,5.76-11.33A2.44,2.44,0,0,0,91.77,17.89Z"/><path class="cls-1" d="M72.63,31.66a3,3,0,0,1-1.76-.53c-1.27-.92-1.61-2.9-1-5.56a24.38,24.38,0,0,1,4-8.12,24.27,24.27,0,0,1,6.49-6.33c2.33-1.44,4.31-1.73,5.58-.8,2.53,1.83,1.18,7.84-3.06,13.68a24.1,24.1,0,0,1-6.48,6.33A7.62,7.62,0,0,1,72.63,31.66ZM84.22,10.78A6.75,6.75,0,0,0,80.93,12,23.41,23.41,0,0,0,74.73,18a23.29,23.29,0,0,0-3.85,7.77c-.54,2.21-.33,3.85.58,4.51s2.53.35,4.47-.84a23.56,23.56,0,0,0,6.2-6.07h0c4.17-5.74,5.06-11,3.27-12.29A2,2,0,0,0,84.22,10.78Z"/><path class="cls-1" d="M66.85,28.4a2.55,2.55,0,0,1-1.1-.23c-1.44-.64-2.18-2.5-2.1-5.24a24.31,24.31,0,0,1,2.24-8.77,24,24,0,0,1,5-7.54c2-1.9,3.86-2.59,5.29-1.95s2.18,2.5,2.1,5.24a24.4,24.4,0,0,1-2.24,8.78h0C73.49,24.48,69.67,28.4,66.85,28.4Zm8.24-23a5.66,5.66,0,0,0-3.48,1.9,23.11,23.11,0,0,0-4.8,7.22A23.18,23.18,0,0,0,64.65,23c-.07,2.28.48,3.84,1.5,4.3,2,.9,6.12-2.5,9-9h0a23.18,23.18,0,0,0,2.16-8.4c.07-2.28-.48-3.84-1.51-4.3A1.8,1.8,0,0,0,75.09,5.44Z"/><path class="cls-1" d="M60.66,26.4a2.48,2.48,0,0,1-.54-.06c-1.53-.32-2.65-2-3.14-4.68a24.4,24.4,0,0,1,.37-9.06A24.31,24.31,0,0,1,60.7,4.18c1.54-2.26,3.24-3.33,4.77-3,3.06.65,4.27,6.68,2.78,13.74h0C66.83,21.56,63.59,26.4,60.66,26.4ZM64.93,2.12c-1,0-2.26.94-3.41,2.63a23.1,23.1,0,0,0-3.19,8.06A23.17,23.17,0,0,0,58,21.48c.4,2.24,1.26,3.65,2.36,3.89,2.17.46,5.46-3.72,6.94-10.66h0c1.47-6.94.15-12.09-2-12.55A1.86,1.86,0,0,0,64.93,2.12Z"/><path class="cls-1" d="M57.49,25.67h-.27c-3.1-.33-4.95-6.21-4.19-13.38a24.38,24.38,0,0,1,2.44-8.72c1.3-2.42,2.88-3.65,4.44-3.49,3.11.33,5,6.2,4.2,13.37h0C63.37,20.41,60.5,25.67,57.49,25.67ZM59.64,1.06c-1.07,0-2.26,1.07-3.28,3A23.25,23.25,0,0,0,54,12.39c-.74,7.05,1.11,12,3.31,12.27s5-4.26,5.78-11.32h0c.74-7.06-1.11-12-3.3-12.28Z"/><path class="cls-1" d="M51,25.67c-3,0-5.88-5.26-6.61-12.23C43.62,6.27,45.47.4,48.57.07,50.15-.09,51.71,1.15,53,3.56a24.38,24.38,0,0,1,2.44,8.72h0c.76,7.17-1.08,13.05-4.19,13.38ZM48.84,1.06h-.16c-2.2.24-4,5.22-3.31,12.28s3.57,11.54,5.79,11.32,4-5.22,3.3-12.27h0A23.46,23.46,0,0,0,52.13,4C51.1,2.13,49.92,1.06,48.84,1.06Z"/><path class="cls-1" d="M44.62,27c-2.87,0-6.43-4.39-8.46-10.64-2.23-6.86-1.65-13,1.32-13.95s7,3.65,9.27,10.51,1.65,13-1.32,14A2.79,2.79,0,0,1,44.62,27ZM38.3,3.3a1.7,1.7,0,0,0-.51.08c-2.1.68-2.87,5.94-.68,12.69s5.91,10.56,8,9.87S48,20,45.8,13.25h0C43.78,7,40.45,3.3,38.3,3.3Z"/><path class="cls-1" d="M38.57,29.68c-2.79,0-6.79-3.44-9.84-8.72C25.12,14.72,24.42,8.6,27.12,7s7.65,2.11,11.26,8.36a24.17,24.17,0,0,1,3.14,8.49c.37,2.72-.18,4.64-1.54,5.43A2.79,2.79,0,0,1,38.57,29.68Zm-10-22a1.76,1.76,0,0,0-.93.23c-1.91,1.1-1.57,6.41,2,12.55s8,9.1,9.89,8c1-.56,1.36-2.17,1.05-4.42a23.23,23.23,0,0,0-3-8.13C34.45,10.6,30.74,7.68,28.55,7.68Z"/><path class="cls-1" d="M33,33.55c-2.79,0-6.93-2.46-10.61-6.56a24.1,24.1,0,0,1-4.85-7.66c-.92-2.57-.79-4.57.38-5.62s3.16-1,5.63.21a24.16,24.16,0,0,1,7.11,5.62c4.83,5.36,6.79,11.19,4.47,13.28A3.07,3.07,0,0,1,33,33.55ZM20.1,14a2.14,2.14,0,0,0-1.48.48c-.84.75-.88,2.41-.11,4.55a23.25,23.25,0,0,0,4.65,7.32c4.75,5.27,9.69,7.24,11.33,5.76s.21-6.6-4.54-11.87h0a23.31,23.31,0,0,0-6.8-5.39A7.29,7.29,0,0,0,20.1,14Z"/><path class="cls-1" d="M28,38.53c-2.75,0-6.67-1.54-10.52-4.33a24.39,24.39,0,0,1-6.33-6.48c-1.44-2.33-1.72-4.32-.8-5.59C12.2,19.61,18.2,21,24,25.19h0c5.83,4.24,9,9.54,7.13,12.06A3.68,3.68,0,0,1,28,38.53ZM13.53,21.85a2.81,2.81,0,0,0-2.36.87c-.66.91-.35,2.54.84,4.47a23.26,23.26,0,0,0,6.07,6.2c5.74,4.17,11,5.06,12.28,3.28S29.19,30.17,23.45,26C19.56,23.17,15.89,21.85,13.53,21.85Z"/><path class="cls-1" d="M23.35,44.52H23a24.2,24.2,0,0,1-8.78-2.24,24.41,24.41,0,0,1-7.54-5c-1.89-2-2.58-3.86-1.94-5.3,1.27-2.85,7.43-2.79,14,.15h0a24.41,24.41,0,0,1,7.54,5c1.89,2,2.58,3.86,1.94,5.3S25.87,44.52,23.35,44.52ZM9.56,30.84c-2.09,0-3.53.56-4,1.52s.19,2.55,1.76,4.2a23.28,23.28,0,0,0,7.22,4.8A23.39,23.39,0,0,0,23,43.52c2.27.06,3.84-.49,4.3-1.51s-.19-2.55-1.76-4.2A23.28,23.28,0,0,0,18.3,33h0A22.43,22.43,0,0,0,9.56,30.84Z"/><path class="cls-1" d="M18.39,51.5a28.48,28.48,0,0,1-5.78-.64,24.31,24.31,0,0,1-8.42-3.35c-2.27-1.54-3.33-3.24-3-4.77s2-2.65,4.69-3.14a24.11,24.11,0,0,1,9.05.36,24.15,24.15,0,0,1,8.42,3.35c2.27,1.54,3.33,3.24,3,4.78s-2,2.65-4.69,3.14A18.57,18.57,0,0,1,18.39,51.5ZM9.15,40.32a17.66,17.66,0,0,0-3.1.26C3.81,41,2.4,41.85,2.16,43s.71,2.46,2.59,3.74a23.43,23.43,0,0,0,8.07,3.19,23.11,23.11,0,0,0,8.66.36c2.24-.4,3.66-1.26,3.89-2.36s-.71-2.46-2.59-3.74a23.37,23.37,0,0,0-8.06-3.2A27.14,27.14,0,0,0,9.15,40.32Z"/><path class="cls-1" d="M12.86,59.58C5.65,59.58,0,57.14,0,54s5.65-5.56,12.86-5.56S25.73,50.89,25.73,54,20.08,59.58,12.86,59.58Zm0-10.13C5.77,49.45,1,51.81,1,54s4.77,4.57,11.86,4.57S24.73,56.22,24.73,54,20,49.45,12.86,49.45Z"/><path class="cls-1" d="M9.15,68.71a17.74,17.74,0,0,1-3.28-.28c-2.69-.49-4.36-1.6-4.69-3.14s.74-3.23,3-4.77a24.31,24.31,0,0,1,8.42-3.35,24.34,24.34,0,0,1,9.05-.37c2.7.49,4.36,1.61,4.69,3.14s-.74,3.24-3,4.78a24.15,24.15,0,0,1-8.42,3.35A28.31,28.31,0,0,1,9.15,68.71Zm9.23-11.18a27.12,27.12,0,0,0-5.56.62,23.43,23.43,0,0,0-8.07,3.19C2.87,62.62,1.93,64,2.16,65.08s1.65,2,3.89,2.37a23.38,23.38,0,0,0,8.67-.36,23.37,23.37,0,0,0,8.06-3.2c1.88-1.28,2.82-2.64,2.59-3.74s-1.65-2-3.89-2.36A16.6,16.6,0,0,0,18.38,57.53Z"/><path class="cls-1" d="M9.57,78.18c-2.45,0-4.26-.7-4.88-2.1s0-3.32,1.94-5.3a24.41,24.41,0,0,1,7.54-5l.21.45-.21-.45A24.44,24.44,0,0,1,23,63.51c2.74-.07,4.6.67,5.24,2.1s-.05,3.32-1.94,5.3a24.41,24.41,0,0,1-7.54,5A23.65,23.65,0,0,1,9.57,78.18ZM23.35,64.51H23a23.39,23.39,0,0,0-8.4,2.16,23.28,23.28,0,0,0-7.22,4.8c-1.57,1.65-2.21,3.18-1.76,4.2.9,2,6.22,2.23,12.7-.65a23.28,23.28,0,0,0,7.22-4.8c1.57-1.65,2.21-3.18,1.76-4.2S25.43,64.51,23.35,64.51Z"/><path class="cls-1" d="M13.52,87.17a3.72,3.72,0,0,1-3.16-1.27c-.92-1.27-.64-3.26.8-5.59a24.39,24.39,0,0,1,6.33-6.48h0c5.84-4.24,11.85-5.58,13.68-3S29.87,78.6,24,82.84C20.19,85.63,16.27,87.17,13.52,87.17ZM28,70.49c-2.36,0-6,1.32-9.92,4.15h0A23.12,23.12,0,0,0,12,80.84c-1.19,1.93-1.5,3.56-.84,4.47,1.3,1.78,6.54.89,12.28-3.28s8.21-8.88,6.91-10.67A2.8,2.8,0,0,0,28,70.49Z"/><path class="cls-1" d="M20.09,95.06A3,3,0,0,1,18,94.32c-1.17-1-1.3-3-.38-5.63A24.17,24.17,0,0,1,22.42,81h0c4.82-5.36,10.42-7.92,12.74-5.83s.36,7.92-4.47,13.28a24.16,24.16,0,0,1-7.11,5.62A8.31,8.31,0,0,1,20.09,95.06Zm3.07-13.35A23.25,23.25,0,0,0,18.51,89c-.77,2.14-.73,3.8.11,4.55s2.48.62,4.53-.37A23.31,23.31,0,0,0,30,87.82C34.7,82.55,36.13,77.43,34.49,76s-6.58.49-11.33,5.76Z"/><path class="cls-1" d="M28.53,101.35a2.79,2.79,0,0,1-1.41-.36c-2.7-1.56-2-7.68,1.61-13.93S37.28,77.15,40,78.71c1.36.79,1.91,2.71,1.54,5.43a24.17,24.17,0,0,1-3.14,8.49C35.33,97.91,31.33,101.35,28.53,101.35Zm10-22c-2.19,0-5.91,2.92-9,8.21-3.54,6.15-3.88,11.46-2,12.56s6.34-1.84,9.89-8a23.23,23.23,0,0,0,3-8.13c.31-2.25-.07-3.86-1.05-4.42A1.72,1.72,0,0,0,38.56,79.35Z"/><path class="cls-1" d="M38.29,105.73a2.5,2.5,0,0,1-.81-.13c-3-1-3.55-7.09-1.32-13.95h0c2.23-6.86,6.29-11.48,9.27-10.52s3.55,7.1,1.32,14C44.72,101.34,41.16,105.73,38.29,105.73ZM44.61,82c-2.15,0-5.48,3.72-7.5,9.95h0c-2.19,6.74-1.42,12,.68,12.69s5.82-3.12,8-9.87,1.42-12-.68-12.69A1.44,1.44,0,0,0,44.61,82Z"/><path class="cls-1" d="M48.85,108h-.28c-3.1-.33-5-6.2-4.19-13.38h0c.75-7.17,3.78-12.55,6.88-12.21s5,6.21,4.19,13.38A24.38,24.38,0,0,1,53,104.47C51.79,106.74,50.32,108,48.85,108ZM45.37,94.69c-.74,7.06,1.11,12,3.31,12.27,1.11.12,2.37-1,3.45-3a23.52,23.52,0,0,0,2.33-8.36c.74-7-1.11-12-3.3-12.27s-5,4.26-5.79,11.32Z"/><path class="cls-1" d="M59.64,108c-1.47,0-2.94-1.23-4.17-3.5A24.38,24.38,0,0,1,53,95.75h0c-.76-7.17,1.09-13,4.19-13.38s6.13,5,6.89,12.21-1.09,13-4.2,13.38ZM57.49,83.36h-.16c-2.2.23-4,5.22-3.31,12.27h0A23.31,23.31,0,0,0,56.36,104c1.07,2,2.33,3.08,3.45,3,2.19-.23,4-5.21,3.3-12.27C62.39,87.8,59.66,83.36,57.49,83.36Z"/><path class="cls-1" d="M70.19,105.73c-2.87,0-6.43-4.39-8.46-10.64-2.23-6.86-1.65-13,1.32-14s7,3.66,9.27,10.52S74,104.64,71,105.6A2.45,2.45,0,0,1,70.19,105.73ZM63.87,82a1.44,1.44,0,0,0-.51.08c-2.1.68-2.87,5.94-.68,12.69h0c2.2,6.75,5.91,10.55,8,9.87s2.88-6,.68-12.69C69.35,85.73,66,82,63.87,82Z"/><path class="cls-1" d="M80,101.35c-2.8,0-6.8-3.44-9.84-8.72A24.2,24.2,0,0,1,67,84.14c-.37-2.72.18-4.64,1.54-5.43,2.7-1.56,7.65,2.11,11.25,8.35S84.07,99.43,81.36,101A2.79,2.79,0,0,1,80,101.35Zm-10-22a1.76,1.76,0,0,0-.93.23c-1,.56-1.35,2.17-1,4.42a23.23,23.23,0,0,0,3,8.13c3.55,6.15,8,9.1,9.89,8s1.58-6.41-2-12.56C75.83,82.27,72.12,79.35,69.93,79.35Z"/><path class="cls-1" d="M88.39,95.06a8.31,8.31,0,0,1-3.49-1,24.29,24.29,0,0,1-7.11-5.62C73,83.13,71,77.3,73.32,75.21s7.92.47,12.75,5.83a24.31,24.31,0,0,1,4.84,7.65c.93,2.58.79,4.58-.37,5.63A3.09,3.09,0,0,1,88.39,95.06ZM75.48,75.47A2.15,2.15,0,0,0,74,76c-1.64,1.48-.2,6.6,4.54,11.87h0a23.44,23.44,0,0,0,6.8,5.39c2,1,3.7,1.12,4.54.37s.87-2.41.1-4.55a23.38,23.38,0,0,0-4.64-7.32C81.6,77.57,77.75,75.47,75.48,75.47Z"/><path class="cls-1" d="M95,87.17c-2.75,0-6.67-1.53-10.52-4.33h0c-5.83-4.24-9-9.54-7.13-12.06s7.85-1.19,13.68,3a24.39,24.39,0,0,1,6.33,6.48c1.44,2.33,1.73,4.32.8,5.59A3.71,3.71,0,0,1,95,87.17ZM85,82c5.74,4.17,11,5.06,12.28,3.28.66-.91.36-2.54-.84-4.47a23.12,23.12,0,0,0-6.07-6.2c-5.74-4.17-11-5.06-12.28-3.28S79.29,77.86,85,82Z"/><path class="cls-1" d="M98.91,78.18a23.39,23.39,0,0,1-9.13-2.25h0a24.17,24.17,0,0,1-7.54-5c-1.9-2-2.59-3.86-1.95-5.3s2.51-2.17,5.24-2.1a27.05,27.05,0,0,1,16.32,7.27c1.89,2,2.58,3.86,1.94,5.3S101.37,78.18,98.91,78.18ZM85.13,64.51c-2.07,0-3.49.54-3.92,1.51s.18,2.55,1.75,4.2A23.4,23.4,0,0,0,90.18,75h0c6.49,2.88,11.8,2.67,12.7.65.46-1-.18-2.55-1.76-4.2a23.16,23.16,0,0,0-7.22-4.8,23.39,23.39,0,0,0-8.4-2.16Z"/><path class="cls-1" d="M99.34,68.71a28.48,28.48,0,0,1-5.78-.64,24.23,24.23,0,0,1-8.42-3.35c-2.27-1.54-3.33-3.24-3-4.78s2-2.65,4.69-3.14a24.34,24.34,0,0,1,9.05.37,24.15,24.15,0,0,1,8.42,3.35c2.27,1.54,3.33,3.24,3,4.77s-2,2.65-4.69,3.14A17.63,17.63,0,0,1,99.34,68.71ZM90.1,57.53a16.68,16.68,0,0,0-3.1.26c-2.24.4-3.65,1.26-3.89,2.36s.71,2.46,2.59,3.74a25.91,25.91,0,0,0,16.73,3.56c2.24-.41,3.66-1.27,3.89-2.37s-.71-2.46-2.59-3.74a23.37,23.37,0,0,0-8.06-3.19A27.29,27.29,0,0,0,90.1,57.53Z"/><path class="cls-1" d="M95.62,59.58c-7.21,0-12.86-2.44-12.86-5.57s5.65-5.56,12.86-5.56,12.86,2.44,12.86,5.56S102.83,59.58,95.62,59.58Zm0-10.13c-7.1,0-11.86,2.36-11.86,4.56s4.76,4.57,11.86,4.57,11.86-2.36,11.86-4.57S102.72,49.45,95.62,49.45Z"/><path class="cls-1" d="M90.1,51.5a18.61,18.61,0,0,1-3.28-.27c-2.7-.49-4.36-1.61-4.69-3.14s.74-3.24,3-4.78a26.86,26.86,0,0,1,17.47-3.71c2.7.49,4.36,1.6,4.69,3.14s-.74,3.23-3,4.77a24.15,24.15,0,0,1-8.42,3.35A28.38,28.38,0,0,1,90.1,51.5Zm9.23-11.18a27.29,27.29,0,0,0-5.57.62,23.37,23.37,0,0,0-8.06,3.2c-1.88,1.28-2.82,2.64-2.59,3.74s1.65,2,3.89,2.36a23,23,0,0,0,8.67-.36,23.37,23.37,0,0,0,8.06-3.19c1.88-1.28,2.82-2.65,2.59-3.74s-1.65-2-3.89-2.37A17.58,17.58,0,0,0,99.33,40.32Z"/><path class="cls-1" d="M85.13,44.52c-2.52,0-4.23-.74-4.84-2.1s0-3.32,1.95-5.3a24.17,24.17,0,0,1,7.54-5c6.59-2.94,12.74-3,14-.15.64,1.44-.05,3.32-1.94,5.3a24.41,24.41,0,0,1-7.54,5l-.21-.45.21.45a24.15,24.15,0,0,1-8.78,2.24ZM98.92,30.84A22.43,22.43,0,0,0,90.18,33,23.4,23.4,0,0,0,83,37.81C81.39,39.46,80.75,41,81.21,42s2,1.56,4.29,1.51a23.39,23.39,0,0,0,8.4-2.16,23.16,23.16,0,0,0,7.22-4.8c1.58-1.65,2.22-3.18,1.76-4.2S101,30.84,98.92,30.84Z"/><path class="cls-1" d="M80.47,38.53a3.69,3.69,0,0,1-3.16-1.28c-1.84-2.52,1.3-7.82,7.13-12.06s11.85-5.58,13.68-3.06c.93,1.27.64,3.26-.8,5.59A24.39,24.39,0,0,1,91,34.2h0C87.15,37,83.23,38.53,80.47,38.53ZM95,21.85c-2.36,0-6,1.32-9.92,4.15-5.74,4.17-8.21,8.88-6.91,10.67s6.54.89,12.28-3.28h0a23.26,23.26,0,0,0,6.07-6.2c1.2-1.93,1.5-3.56.84-4.47A2.8,2.8,0,0,0,95,21.85Z"/><path class="cls-1" d="M75.46,33.55a3.07,3.07,0,0,1-2.14-.73C71,30.73,73,24.9,77.79,19.54a24.29,24.29,0,0,1,7.11-5.62c2.47-1.19,4.47-1.27,5.64-.21s1.3,3.05.37,5.62A24.23,24.23,0,0,1,86.07,27h0C82.38,31.09,78.24,33.55,75.46,33.55ZM88.38,14a7.29,7.29,0,0,0-3,.85,23.44,23.44,0,0,0-6.8,5.39C73.79,25.48,72.35,30.6,74,32.08s6.59-.49,11.34-5.76h0A23.38,23.38,0,0,0,90,19c.77-2.14.73-3.8-.1-4.55A2.19,2.19,0,0,0,88.38,14Z"/><path class="cls-1" d="M69.91,29.68a2.79,2.79,0,0,1-1.41-.36c-1.36-.79-1.91-2.71-1.54-5.43a24.2,24.2,0,0,1,3.15-8.49C73.71,9.15,78.66,5.48,81.36,7s2,7.68-1.61,13.92C76.71,26.24,72.71,29.68,69.91,29.68Zm10-22c-2.19,0-5.9,2.92-9,8.22A23.23,23.23,0,0,0,68,24c-.3,2.25.08,3.86,1,4.42,1.91,1.11,6.34-1.84,9.89-8S82.77,9,80.86,7.91A1.74,1.74,0,0,0,79.93,7.68Z"/><path class="cls-1" d="M63.87,27a2.86,2.86,0,0,1-.82-.12c-3-1-3.55-7.1-1.32-14S68,1.47,71,2.43s3.55,7.09,1.32,14h0C70.29,22.63,66.73,27,63.87,27ZM70.18,3.3c-2.15,0-5.47,3.72-7.5,10-2.19,6.75-1.42,12,.68,12.69s5.82-3.12,8-9.87h0c2.2-6.75,1.42-12-.68-12.69A1.7,1.7,0,0,0,70.18,3.3Z"/><path class="cls-1" d="M57.49,25.67h-.27c-3.1-.33-4.95-6.21-4.19-13.38a24.38,24.38,0,0,1,2.44-8.72c1.3-2.42,2.88-3.65,4.44-3.49,3.11.33,5,6.2,4.2,13.37h0C63.37,20.41,60.5,25.67,57.49,25.67ZM59.64,1.06c-1.07,0-2.26,1.07-3.28,3A23.25,23.25,0,0,0,54,12.39c-.74,7.05,1.11,12,3.31,12.27s5-4.26,5.78-11.32h0c.74-7.06-1.11-12-3.3-12.28Z"/><path class="cls-1" d="M51,25.67c-3,0-5.88-5.26-6.61-12.23C43.62,6.27,45.47.4,48.57.07,50.15-.09,51.71,1.15,53,3.56a24.38,24.38,0,0,1,2.44,8.72h0c.76,7.17-1.08,13.05-4.19,13.38ZM48.84,1.06h-.16c-2.2.24-4,5.22-3.31,12.28s3.57,11.54,5.79,11.32,4-5.22,3.3-12.27h0A23.46,23.46,0,0,0,52.13,4C51.1,2.13,49.92,1.06,48.84,1.06Z"/><path class="cls-1" d="M44.62,27c-2.87,0-6.43-4.39-8.46-10.64-2.23-6.86-1.65-13,1.32-13.95s7,3.65,9.27,10.51,1.65,13-1.32,14A2.79,2.79,0,0,1,44.62,27ZM38.3,3.3a1.7,1.7,0,0,0-.51.08c-2.1.68-2.87,5.94-.68,12.69s5.91,10.56,8,9.87S48,20,45.8,13.25h0C43.78,7,40.45,3.3,38.3,3.3Z"/><path class="cls-1" d="M38.57,29.68c-2.79,0-6.79-3.44-9.84-8.72C25.12,14.72,24.42,8.6,27.12,7s7.65,2.11,11.26,8.36a24.17,24.17,0,0,1,3.14,8.49c.37,2.72-.18,4.64-1.54,5.43A2.79,2.79,0,0,1,38.57,29.68Zm-10-22a1.76,1.76,0,0,0-.93.23c-1.91,1.1-1.57,6.41,2,12.55s8,9.1,9.89,8c1-.56,1.36-2.17,1.05-4.42a23.23,23.23,0,0,0-3-8.13C34.45,10.6,30.74,7.68,28.55,7.68Z"/></g></g></svg>